<?xml version="1.0" standalone="no"?>
<!DOCTYPE svg PUBLIC "-//W3C//DTD SVG 20010904//EN"
 "http://www.w3.org/TR/2001/REC-SVG-20010904/DTD/svg10.dtd">
<svg version="1.0" xmlns="http://www.w3.org/2000/svg"
 width="1024.000000pt" height="1024.000000pt" viewBox="0 0 1024.000000 1024.000000"
 preserveAspectRatio="xMidYMid meet">
<metadata>
Created by potrace 1.14, written by Peter Selinger 2001-2017
</metadata>
<g transform="translate(0.000000,1024.000000) scale(0.100000,-0.100000)"
fill="#000000" stroke="none">
<path d="M0 5363 c0 -3793 3 -4874 12 -4865 7 7 18 12 25 12 26 0 34 -39 27
-125 l-7 -85 -28 0 -29 0 0 -150 0 -150 5120 0 5120 0 0 5120 0 5120 -5120 0
-5120 0 0 -4877z m6677 3470 c68 -32 108 -132 92 -231 -16 -102 -87 -202 -170
-239 l-39 -17 0 -66 c0 -37 3 -101 6 -142 l7 -75 55 -33 c100 -60 92 -29 92
-370 l0 -300 38 -23 c37 -24 96 -59 457 -272 110 -65 231 -136 270 -159 38
-22 75 -52 82 -66 19 -38 18 -234 -2 -250 -11 -9 -15 -9 -15 -1 0 7 -5 9 -11
5 -6 -3 -15 -1 -19 6 -6 10 -14 8 -35 -9 -15 -11 -34 -21 -42 -21 -8 0 -12 -4
-9 -9 3 -5 -7 -11 -23 -14 -16 -3 -36 -13 -44 -22 -9 -8 -22 -15 -29 -15 -7 0
-24 -6 -38 -14 -14 -7 -52 -28 -85 -46 -33 -18 -69 -40 -80 -50 -11 -10 -40
-24 -65 -31 -25 -7 -48 -18 -52 -24 -5 -6 -8 -4 -8 5 0 8 -6 22 -13 31 -10 14
-12 -9 -10 -120 2 -137 0 -147 -12 -57 -4 27 -10 45 -13 39 -4 -6 -17 -13 -29
-17 -12 -4 -36 -20 -54 -37 -17 -16 -34 -29 -38 -29 -4 0 -23 -15 -42 -33 -19
-18 -57 -50 -86 -71 -28 -22 -54 -48 -57 -58 -2 -11 -9 -17 -15 -13 -6 3 -15
-5 -20 -19 -6 -13 -19 -27 -31 -31 -11 -3 -18 -10 -15 -15 3 -4 -10 -17 -28
-27 -41 -24 -71 -16 -95 27 -9 16 -20 30 -24 30 -5 0 -8 6 -8 13 0 8 -9 22
-20 32 -11 10 -20 23 -20 29 0 6 -18 22 -40 35 -37 23 -39 27 -46 89 -4 36 -4
98 -1 139 7 96 -8 306 -28 391 -28 115 -72 214 -152 340 -18 29 -33 57 -33 62
0 6 -5 9 -11 8 -7 -2 -28 17 -47 42 -19 25 -39 44 -43 42 -5 -1 -8 1 -8 5 3
20 -2 26 -11 13 -7 -12 -10 -12 -10 -1 0 24 -45 68 -67 66 -12 -1 -20 2 -17 6
4 7 -67 69 -80 69 -3 0 -32 18 -65 41 -35 24 -65 38 -72 33 -7 -4 -10 -3 -6 2
3 5 -16 18 -41 28 -26 9 -57 22 -70 27 -14 5 -20 14 -16 21 4 6 3 8 -4 4 -15
-9 -113 14 -106 25 3 5 2 9 -3 8 -27 -5 -53 2 -47 12 4 7 1 10 -7 7 -8 -3 -30
3 -50 13 -20 10 -63 23 -95 28 -91 16 -118 21 -134 27 -18 7 -31 9 -147 28
-51 8 -102 20 -114 26 -17 10 -20 9 -14 -1 6 -9 3 -10 -10 -5 -33 12 -277 26
-365 21 -103 -7 -235 -24 -273 -36 -17 -5 -25 -5 -22 1 4 6 1 10 -5 10 -6 0
-13 -6 -16 -14 -3 -8 -15 -14 -27 -14 -48 -1 -110 -12 -122 -22 -7 -6 -21 -7
-30 -3 -13 4 -16 3 -11 -6 6 -9 0 -10 -20 -5 -17 4 -25 3 -21 -3 8 -13 -45
-25 -70 -17 -15 5 -16 4 -3 -5 13 -9 12 -11 -3 -11 -19 0 -315 -117 -333 -131
-6 -5 -20 -7 -30 -3 -13 4 -15 3 -6 -3 9 -7 2 -14 -25 -28 -21 -10 -44 -20
-52 -21 -8 -1 -17 -6 -20 -11 -3 -5 -13 -9 -21 -9 -8 0 -28 -8 -45 -17 -27
-16 -27 -17 -5 -11 14 4 22 3 18 -1 -3 -4 -24 -11 -46 -16 -40 -9 -158 -71
-177 -93 -5 -7 -30 -24 -55 -38 -58 -34 -211 -164 -203 -172 4 -3 -1 -6 -10
-6 -9 0 -17 -6 -17 -14 0 -8 -7 -16 -15 -19 -15 -7 -112 -133 -138 -182 -54
-102 -101 -231 -116 -321 -7 -38 -17 -72 -24 -76 -17 -10 8 -316 33 -407 59
-210 240 -401 513 -542 288 -148 402 -169 977 -178 452 -7 457 -8 486 -76 15
-36 20 -136 7 -134 -5 1 -14 1 -21 0 -16 -1 -172 -157 -172 -171 0 -5 -9 -14
-20 -20 -11 -6 -20 -17 -20 -25 0 -8 -6 -14 -12 -12 -7 1 -12 -3 -11 -10 2 -7
-4 -10 -12 -7 -11 4 -13 2 -10 -9 4 -9 -2 -16 -15 -20 -14 -4 -21 -12 -18 -24
4 -20 -24 -46 -127 -119 -76 -53 -76 -53 -120 -87 -89 -69 -310 -220 -338
-232 l-32 -13 -1 39 c-2 40 -60 169 -76 169 -5 0 -7 9 -3 20 5 15 3 18 -9 14
-9 -3 -16 -1 -16 4 0 6 -10 14 -22 18 -13 4 -52 25 -88 47 -36 22 -155 94
-265 160 -110 66 -202 123 -205 127 -3 4 -10 9 -15 11 -11 4 -222 129 -273
161 -15 10 -40 25 -57 34 -16 9 -35 23 -43 30 -7 8 -17 14 -22 14 -7 0 -167
93 -250 145 -51 33 -284 171 -365 218 -214 122 -342 247 -380 373 -21 70 -20
242 2 313 10 31 21 58 25 59 5 2 8 9 8 15 0 19 52 90 100 135 41 40 158 125
380 276 47 31 146 100 220 152 74 51 185 127 245 169 61 41 184 127 275 191
91 64 188 131 215 149 28 19 129 88 225 154 295 203 339 233 520 355 96 66
191 131 210 146 71 54 322 221 369 245 224 113 679 108 937 -10 74 -34 449
-246 904 -513 288 -169 362 -212 370 -212 3 0 4 62 2 137 -3 114 -6 139 -20
149 -9 7 -62 41 -117 76 -55 34 -106 69 -113 78 -8 9 -11 10 -7 1 5 -9 -1 -8
-19 4 -14 10 -26 19 -26 20 0 5 172 129 206 149 31 19 32 19 68 -3 l36 -23 1
119 c1 91 3 107 9 68 4 -27 6 -74 4 -104 -2 -29 1 -61 7 -70 8 -13 9 -11 5 9
-3 14 0 32 5 40 9 13 10 12 5 -2 -3 -10 -1 -18 5 -18 7 0 8 25 3 78 -5 42 -8
92 -8 110 0 26 -4 32 -20 33 -58 2 -119 36 -141 79 -20 38 -19 63 1 28 8 -16
17 -28 20 -28 2 0 0 9 -6 19 -12 24 -13 34 -1 27 5 -4 6 9 1 28 -9 39 4 121
21 143 7 7 9 16 6 19 -3 4 3 24 14 46 11 21 17 43 14 48 -8 13 33 49 80 71 50
23 116 24 162 2z m-2999 -525 c93 -51 102 -63 102 -129 0 -32 -3 -60 -7 -62
-5 -3 -6 17 -4 45 4 65 -7 74 -50 42 -55 -42 -77 -47 -104 -25 -14 10 -21 21
-17 25 3 4 -2 4 -13 0 -14 -6 -17 -4 -13 7 3 9 -7 20 -28 30 -18 9 -31 12 -28
8 3 -5 -2 -6 -10 -3 -9 3 -16 10 -16 14 0 9 109 80 122 80 5 0 34 -14 66 -32z
m799 -644 c-3 -3 -12 -4 -19 -1 -8 3 -5 6 6 6 11 1 17 -2 13 -5z m-130 -10
c-3 -3 -12 -4 -19 -1 -8 3 -5 6 6 6 11 1 17 -2 13 -5z m373 -14 c238 -18 459
-67 660 -146 377 -150 609 -357 722 -644 79 -201 99 -534 42 -695 -26 -71 -65
-182 -129 -359 -19 -55 -35 -110 -35 -123 0 -13 -4 -22 -9 -19 -5 4 -7 -4 -3
-16 4 -15 2 -19 -7 -13 -10 6 -11 3 -1 -14 6 -12 16 -18 22 -15 6 4 8 3 5 -3
-4 -6 2 -31 13 -54 17 -39 20 -66 20 -239 l0 -195 188 0 c151 0 200 -4 252
-18 147 -42 269 -108 349 -191 67 -67 95 -113 121 -191 10 -33 26 -80 35 -105
9 -24 14 -52 12 -62 -3 -10 -3 -18 0 -18 18 0 214 138 246 173 24 28 22 79 -5
104 -13 11 -61 40 -108 64 -47 24 -105 55 -130 69 -25 15 -101 60 -170 100
-69 40 -161 94 -205 120 -44 26 -115 66 -157 90 -42 24 -75 47 -72 52 4 5 -2
8 -12 6 -34 -6 -24 27 19 58 23 17 85 63 137 102 104 77 142 96 173 86 22 -7
525 -308 590 -353 87 -60 147 -145 185 -261 34 -103 40 -188 33 -450 -5 -202
-10 -250 -23 -275 -21 -37 -22 -32 -3 20 16 47 22 320 5 310 -5 -3 -7 -12 -3
-21 3 -8 1 -14 -3 -12 -15 5 -124 -94 -117 -105 3 -6 1 -7 -6 -3 -6 4 -28 -5
-49 -21 -20 -16 -48 -37 -62 -46 -109 -74 -129 -90 -123 -100 3 -6 1 -7 -5 -3
-15 9 -84 -43 -75 -57 3 -5 1 -7 -5 -3 -10 6 -127 -71 -263 -171 -30 -22 -132
-95 -227 -162 -95 -67 -170 -126 -167 -131 3 -4 -2 -7 -10 -6 -8 0 -63 -34
-122 -77 -155 -112 -306 -219 -398 -282 -44 -31 -138 -98 -210 -150 -71 -52
-138 -95 -148 -95 -10 0 -15 4 -12 10 11 17 -27 124 -68 188 -27 44 -50 67
-74 77 -30 13 -163 90 -402 233 -41 24 -88 52 -105 62 -233 133 -557 326 -631
375 -90 60 -151 113 -147 127 1 5 -2 7 -7 4 -17 -11 -21 10 -6 31 8 11 61 51
117 88 57 37 162 107 233 155 161 108 190 123 218 114 12 -3 110 -58 217 -122
107 -63 281 -165 385 -227 190 -112 346 -203 545 -317 123 -71 163 -104 154
-130 -7 -25 301 189 332 230 31 41 30 41 -161 101 -289 90 -456 205 -536 368
-30 62 -31 67 -27 171 5 126 20 160 110 257 67 73 185 143 306 182 81 27 83
28 80 58 -3 33 -26 43 -62 27 -11 -5 -32 -15 -46 -21 -14 -6 -32 -15 -40 -20
-8 -5 -33 -17 -55 -26 -46 -20 -135 -72 -215 -124 -30 -20 -68 -43 -84 -51
-51 -26 -136 -115 -143 -152 l-7 -33 -7 40 c-4 22 -11 91 -15 153 -7 110 -8
115 -38 143 -17 16 -60 46 -96 66 -188 105 -337 235 -389 339 -37 73 -39 208
-6 307 44 133 85 242 104 277 11 19 25 55 31 80 7 24 24 69 40 100 54 108 120
298 120 345 0 89 -54 167 -160 229 -141 82 -268 111 -464 103 -174 -6 -242
-25 -251 -68 -4 -16 -12 -29 -18 -29 -11 -1 -67 -83 -67 -99 0 -4 -9 -16 -20
-26 -11 -10 -20 -24 -20 -31 0 -7 -9 -18 -20 -24 -11 -6 -20 -16 -20 -21 0 -6
-11 -24 -25 -41 -14 -16 -25 -36 -25 -44 0 -8 -4 -14 -10 -14 -5 0 -10 -5 -10
-11 0 -6 -8 -23 -19 -37 -10 -15 -24 -46 -31 -69 -7 -23 -16 -41 -19 -39 -3 2
-5 -87 -4 -197 1 -151 -1 -191 -8 -159 -9 39 -29 50 -29 16 0 -8 -5 -14 -11
-14 -20 0 -103 -64 -166 -127 -35 -35 -66 -63 -71 -63 -5 0 -15 -11 -22 -25
-7 -14 -18 -25 -24 -25 -22 -1 -56 -36 -58 -61 -2 -20 -7 -25 -20 -21 -11 3
-18 -1 -18 -10 0 -8 -33 -48 -72 -88 -40 -40 -64 -70 -53 -66 14 5 11 -1 -10
-18 -16 -14 -39 -27 -50 -30 -17 -4 -16 -2 5 16 16 13 19 19 8 15 -10 -4 -18
-2 -18 3 0 6 6 10 13 10 8 0 9 2 1 8 -7 4 -14 30 -17 57 -12 106 -36 255 -42
265 -3 5 -1 10 5 10 7 0 6 5 -2 13 -22 19 -51 34 -141 70 -181 73 -315 203
-373 362 -25 71 -25 277 1 355 41 125 142 290 249 407 52 58 212 190 279 232
28 17 35 26 28 35 -8 9 -7 13 4 13 8 0 12 -4 9 -9 -9 -13 0 -10 77 33 391 216
857 314 1329 279z m3576 -592 l83 -52 3 -69 c2 -44 -2 -76 -9 -87 -7 -10 -9
-20 -5 -24 3 -4 0 -4 -9 -1 -8 3 -36 -8 -63 -25 -27 -17 -50 -30 -52 -28 -6 7
13 24 69 61 l57 37 0 60 c0 48 -3 60 -16 60 -9 0 -12 -5 -8 -12 5 -8 2 -9 -10
-5 -9 4 -15 3 -12 -1 2 -4 1 -14 -5 -22 -7 -12 -9 -12 -9 3 0 10 -3 17 -7 15
-5 -2 -20 -10 -35 -17 -24 -12 -29 -11 -60 11 -18 14 -55 38 -82 53 l-48 28
28 15 c16 8 40 23 53 33 13 11 31 19 39 19 9 0 53 -23 98 -52z m61 -130 c-3
-8 -6 -5 -6 6 -1 11 2 17 5 13 3 -3 4 -12 1 -19z m-100 -30 c-3 -8 -6 -5 -6 6
-1 11 2 17 5 13 3 -3 4 -12 1 -19z m-279 -311 c48 -29 119 -71 157 -92 195
-106 369 -213 388 -239 15 -21 22 -49 25 -102 3 -43 0 -74 -5 -74 -5 0 -10 8
-10 18 1 70 -4 103 -14 96 -7 -4 -7 2 1 17 l13 24 -24 -21 c-13 -11 -50 -37
-81 -59 -32 -21 -55 -42 -51 -48 3 -6 1 -7 -5 -3 -7 4 -64 -31 -134 -81 -68
-49 -136 -97 -153 -107 -16 -11 -37 -28 -46 -38 -9 -10 -21 -18 -28 -18 -6 0
-11 -4 -11 -10 0 -5 -6 -10 -14 -10 -7 0 -19 -7 -27 -16 -14 -18 -82 -54 -100
-54 -8 0 -5 7 5 19 17 19 17 19 -4 14 -13 -3 -41 5 -73 22 -60 33 -416 245
-497 297 -30 19 -65 38 -77 42 -37 12 -40 46 -7 73 36 29 199 148 359 261 66
47 134 96 150 110 17 14 48 33 70 43 47 21 63 16 193 -64z m562 -714 c-1 -82
2 -196 6 -254 4 -66 3 -112 -3 -124 -8 -13 -10 -2 -11 46 -1 80 -11 141 -22
134 -5 -3 -11 5 -13 17 -3 16 -5 13 -6 -11 -1 -25 -5 -32 -16 -27 -8 3 -14 2
-14 -2 4 -24 -3 -34 -18 -28 -10 4 -14 4 -10 0 9 -9 -82 -74 -115 -81 -14 -3
-28 -14 -31 -24 -3 -11 -24 -27 -46 -37 -23 -11 -38 -22 -33 -27 4 -5 1 -5 -6
-1 -18 11 10 42 43 50 14 4 29 15 35 26 6 11 17 20 25 20 8 0 15 5 15 11 0 5
5 7 12 3 7 -5 8 -3 3 6 -6 10 -4 12 8 7 10 -4 16 -2 14 5 -1 6 4 13 12 16 9 3
11 0 6 -9 -5 -8 -4 -11 1 -6 5 5 9 13 9 18 0 5 14 21 30 35 63 53 -8 4 -223
-155 -239 -177 -333 -243 -339 -237 -2 2 -4 29 -4 60 -1 67 5 75 103 148 37
28 66 55 65 62 -1 6 4 10 11 8 16 -3 67 35 67 51 0 7 7 11 16 10 8 -2 30 11
49 28 19 17 30 28 23 25 -6 -4 -15 -1 -19 6 -4 7 -3 10 1 5 5 -4 18 1 29 10
20 17 20 17 7 1 -7 -10 -9 -18 -3 -18 11 0 38 30 35 39 -2 3 3 6 10 6 21 0 97
57 90 68 -3 5 -2 7 4 4 11 -7 79 40 76 52 -1 4 4 8 12 8 19 0 93 65 94 82 1
10 -5 9 -21 -5 -20 -17 -20 -15 2 9 21 24 23 32 14 55 -11 28 0 62 19 62 4 0
8 -66 7 -147z m-115 97 c-3 -5 -12 -10 -18 -10 -7 0 -6 4 3 10 19 12 23 12 15
0z m-4685 -90 c0 -5 -4 -10 -10 -10 -5 0 -10 5 -10 10 0 6 5 10 10 10 6 0 10
-4 10 -10z m4450 -83 c0 -2 -10 -12 -22 -23 l-23 -19 19 23 c18 21 26 27 26
19z m60 -1 c0 -2 -7 -7 -16 -10 -8 -3 -12 -2 -9 4 6 10 25 14 25 6z m-130 -51
c0 -2 -10 -9 -22 -15 -22 -11 -22 -10 -4 4 21 17 26 19 26 11z m40 -8 c0 -2
-12 -14 -27 -28 l-28 -24 24 28 c23 25 31 32 31 24z m-120 -52 c0 -2 -10 -9
-22 -15 -22 -11 -22 -10 -4 4 21 17 26 19 26 11z m-80 -198 c0 -2 -12 -14 -27
-28 l-28 -24 24 28 c23 25 31 32 31 24z m197 -61 c0 -8 -3 -14 -6 -13 -3 1
-17 -4 -31 -11 -22 -11 -21 -10 5 12 17 14 30 26 31 26 0 0 1 -6 1 -14z m-197
-152 c-15 -17 -80 -47 -88 -40 -3 4 70 45 97 55 2 0 -2 -6 -9 -15z m570 -28
c0 -2 -8 -10 -17 -17 -16 -13 -17 -12 -4 4 13 16 21 21 21 13z m-4 -131 c-8
-8 -17 -11 -20 -6 -3 5 1 11 9 15 10 3 16 21 17 48 l1 43 4 -43 c3 -28 -1 -47
-11 -57z m10 -92 c4 -19 4 -37 0 -40 -6 -6 -11 5 -21 50 -4 20 -11 27 -23 25
-9 -2 -16 -9 -15 -16 2 -6 -4 -9 -12 -6 -8 4 -15 1 -15 -4 0 -6 -8 -13 -17
-16 -10 -4 -34 -20 -53 -37 -19 -17 -48 -38 -63 -45 -15 -8 -25 -18 -23 -23 3
-4 -2 -8 -10 -8 -10 0 -6 9 13 29 15 15 31 28 36 28 5 0 24 12 42 28 17 15 42
34 55 42 13 8 35 25 49 37 24 20 27 21 38 6 7 -9 16 -32 19 -50z m-26 -77 c0
-2 -8 -10 -17 -17 -16 -13 -17 -12 -4 4 13 16 21 21 21 13z m24 -48 c3 -13 7
-68 11 -124 5 -88 3 -103 -12 -115 -15 -13 -16 -12 -8 6 10 25 8 73 -6 142 -9
48 -11 51 -27 37 -35 -32 -220 -168 -299 -220 -46 -30 -83 -58 -83 -62 0 -4
-14 -16 -30 -26 -17 -9 -27 -22 -24 -28 4 -7 2 -8 -5 -4 -7 5 -33 -9 -64 -32
-74 -57 -119 -82 -145 -82 -22 0 -22 2 -18 98 3 99 10 132 28 132 6 0 7 -7 2
-17 -4 -10 -10 -47 -12 -82 l-4 -65 29 19 c22 15 25 15 15 2 -8 -9 -22 -19
-33 -22 -10 -4 -19 -11 -19 -16 0 -22 -15 -32 420 287 58 43 121 89 140 103
19 15 52 38 72 51 21 14 38 28 38 33 0 18 30 5 34 -15z m-282 -10 c-6 -7 -25
-22 -44 -32 -39 -23 -32 -13 14 20 38 26 45 29 30 12z m-89 -63 c-3 -9 -8 -14
-10 -11 -3 3 -2 9 2 15 9 16 15 13 8 -4z m-89 -70 c-16 -14 -33 -25 -37 -25
-11 0 46 49 57 50 5 0 -4 -11 -20 -25z m201 15 c-3 -5 -12 -10 -18 -10 -7 0
-6 4 3 10 19 12 23 12 15 0z m-272 -69 c-17 -14 -19 -21 -10 -32 10 -11 9 -11
-3 -2 -10 8 -21 9 -30 3 -13 -8 -13 -10 -1 -10 8 0 12 -3 8 -6 -3 -3 -11 -3
-17 1 -12 7 45 64 65 64 6 0 0 -8 -12 -18z m-82 -54 c-6 -8 -8 -17 -4 -20 3
-4 1 -7 -6 -7 -7 0 -10 -4 -6 -9 3 -5 0 -13 -6 -17 -8 -4 -9 -3 -5 4 4 7 2 12
-3 12 -6 0 -11 -4 -11 -10 0 -5 -5 -10 -12 -10 -7 0 3 16 22 35 33 34 53 48
31 22z m194 3 c-3 -5 -27 -24 -53 -41 -45 -29 -28 -10 29 34 26 19 33 21 24 7z
m-105 -73 c0 -2 -18 -18 -39 -35 -29 -23 -42 -29 -47 -19 -4 6 -4 9 1 5 4 -4
24 6 44 22 35 29 41 33 41 27z m-560 -549 c0 -72 -3 -128 -6 -125 -4 4 -7 52
-6 107 0 99 -4 112 -30 87 -7 -7 -48 -37 -90 -66 -43 -29 -75 -58 -71 -64 3
-5 2 -7 -4 -4 -6 4 -36 -14 -68 -38 -31 -25 -62 -45 -67 -45 -5 0 -6 -5 -2
-12 4 -7 3 -8 -4 -4 -7 4 -24 -4 -39 -18 -15 -15 -31 -26 -36 -26 -4 0 -5 -4
-2 -10 3 -5 0 -8 -7 -5 -7 2 -58 -29 -113 -71 -55 -42 -107 -78 -115 -82 -36
-14 -120 -84 -114 -94 4 -7 3 -8 -4 -4 -10 6 -77 -37 -167 -106 -16 -13 -33
-22 -37 -21 -4 2 -8 -1 -8 -5 0 -4 -15 -16 -32 -27 -32 -18 -85 -56 -158 -113
-19 -15 -37 -27 -40 -27 -3 0 -32 -20 -65 -45 -49 -36 -196 -139 -390 -274
-17 -12 -46 -33 -65 -47 -19 -14 -64 -47 -100 -73 -60 -45 -131 -86 -146 -86
-4 0 22 19 57 43 36 23 112 76 169 118 58 42 200 143 315 224 116 82 287 203
380 270 94 66 280 199 415 295 554 393 635 453 638 466 9 37 12 3 12 -118z
m975 11 l6 -77 -83 -64 c-46 -36 -108 -81 -138 -100 -30 -19 -80 -53 -110 -76
-62 -47 -75 -51 -67 -21 3 11 -1 41 -8 67 -14 45 -14 46 13 69 15 14 46 38 70
55 24 16 102 74 175 128 72 55 132 98 133 97 1 -1 5 -36 9 -78z m-1250 -69
c-3 -5 -12 -10 -18 -10 -7 0 -6 4 3 10 19 12 23 12 15 0z m245 -85 c-17 -21
-6 -30 13 -11 13 14 16 14 21 0 8 -21 6 -258 -3 -364 -5 -47 -9 -71 -9 -55 -1
17 -7 36 -14 43 -9 9 -9 15 0 24 25 25 11 31 -15 6 -32 -29 -251 -194 -329
-247 -197 -135 -463 -334 -458 -343 4 -7 2 -8 -5 -4 -15 10 -564 -382 -555
-396 4 -7 2 -8 -5 -4 -10 7 -78 -38 -236 -154 -263 -193 -329 -239 -347 -240
-3 0 -5 15 -4 33 5 71 -10 238 -22 246 -8 5 24 32 90 79 85 59 308 219 516
372 23 17 110 79 193 138 428 303 482 344 469 352 -8 5 -7 9 5 13 9 4 13 3 10
-3 -15 -24 18 -5 121 69 60 44 108 84 106 91 -1 6 2 9 8 5 6 -4 27 6 48 22 20
16 56 42 80 58 46 31 66 53 39 42 -24 -9 -21 0 4 14 15 8 19 8 15 0 -4 -6 -4
-11 0 -11 6 0 90 61 163 118 19 15 41 32 49 38 9 6 12 16 7 24 -6 9 -1 10 16
5 18 -5 20 -4 9 4 -12 8 -12 13 4 30 22 24 35 29 16 6z m-85 -75 c-3 -5 -12
-10 -18 -10 -7 0 -6 4 3 10 19 12 23 12 15 0z m-95 -63 c0 -2 -10 -12 -22 -23
l-23 -19 19 23 c18 21 26 27 26 19z m-174 -143 c-11 -8 -25 -14 -30 -13 -6 0
-1 5 12 11 12 6 22 16 22 21 0 6 3 7 7 3 5 -4 -1 -14 -11 -22z m-4679 -25 c15
-5 64 -34 108 -63 44 -29 118 -77 165 -107 47 -30 104 -71 128 -93 l42 -39 0
-86 -1 -86 -37 -28 c-68 -52 -272 -197 -277 -197 -3 0 -5 28 -6 63 -1 120 -12
160 -53 205 -45 48 -174 136 -294 200 l-85 45 29 25 c88 73 222 165 251 172 1
0 14 -5 30 -11z m6225 -94 c43 -29 42 -41 -10 -75 -65 -44 -69 -44 -143 2 -38
24 -68 47 -66 53 2 5 27 24 57 42 51 31 54 32 89 17 20 -8 53 -26 73 -39z
m-2082 31 c0 -2 -8 -10 -17 -17 -16 -13 -17 -12 -4 4 13 16 21 21 21 13z m390
-11 c0 -2 -10 -9 -22 -15 -22 -11 -22 -10 -4 4 21 17 26 19 26 11z m510 -30
c0 -2 -10 -10 -22 -16 -21 -11 -22 -11 -9 4 13 16 31 23 31 12z m-625 -51
c-26 -20 -55 -36 -55 -30 0 5 63 46 70 46 3 -1 -4 -8 -15 -16z m-115 -79 c-7
-9 -15 -13 -19 -10 -3 3 1 10 9 15 21 14 24 12 10 -5z m-90 -70 c0 -2 -10 -9
-22 -15 -22 -11 -22 -10 -4 4 21 17 26 19 26 11z m847 -37 c-3 -8 -6 -5 -6 6
-1 11 2 17 5 13 3 -3 4 -12 1 -19z m-957 -43 c-7 -9 -15 -13 -19 -10 -3 3 1
10 9 15 21 14 24 12 10 -5z m1781 -106 c43 -28 80 -58 83 -66 7 -17 -22 -56
-35 -48 -4 3 -11 0 -16 -7 -4 -7 -19 -19 -33 -26 -14 -7 -42 -28 -63 -47 -21
-19 -47 -37 -58 -40 -19 -6 -18 -9 12 -31 18 -13 37 -24 42 -24 5 0 47 27 94
60 46 33 90 60 99 60 19 0 70 -26 112 -57 20 -15 32 -33 32 -48 0 -29 -19 -43
-32 -24 -8 11 -9 10 -5 -3 3 -9 -2 -22 -10 -30 -15 -11 -16 -11 -9 7 l7 20
-19 -20 c-36 -37 -63 -56 -72 -50 -5 3 -12 0 -16 -6 -4 -8 -3 -9 4 -5 7 4 12
2 12 -3 0 -11 -13 -15 -35 -12 -13 2 53 -54 81 -70 19 -10 32 -4 110 55 49 36
100 69 113 73 17 4 41 -2 78 -21 68 -37 103 -70 102 -98 0 -19 -2 -20 -7 -6
-6 16 -13 13 -57 -20 -69 -52 -221 -161 -272 -196 -24 -16 -51 -26 -60 -24
-10 3 -108 65 -218 138 -110 73 -227 151 -260 173 -85 57 -141 101 -142 111
-1 5 -16 16 -34 24 l-32 16 29 23 c66 53 383 273 393 273 3 0 40 -23 82 -51z
m-1902 18 c-2 -1 -13 -9 -24 -17 -19 -14 -19 -14 -6 3 7 9 18 17 24 17 6 0 8
-1 6 -3z m1316 -351 c18 -8 58 -32 87 -53 29 -22 163 -113 298 -203 135 -90
255 -172 268 -183 19 -18 22 -30 21 -86 l-2 -66 -6 52 c-4 28 -9 54 -12 57 -3
4 -32 -11 -65 -32 -79 -51 -93 -55 -119 -38 -12 8 -31 12 -42 10 -11 -3 -26 1
-34 8 -8 8 -22 17 -33 21 -11 4 -16 13 -12 22 3 8 2 14 -2 14 -20 -3 -35 5
-83 46 -29 25 -59 44 -66 43 -7 -2 -24 11 -38 27 -14 17 -3 -9 25 -57 52 -91
90 -171 90 -191 0 -7 -4 -6 -9 2 -9 14 -25 17 -121 24 -19 1 -41 6 -47 10 -7
5 -13 4 -13 -1 0 -5 45 -39 100 -76 55 -36 100 -72 100 -80 0 -8 -24 -28 -52
-45 -29 -17 -65 -38 -79 -47 -33 -21 -25 -25 -337 170 -301 190 -386 246 -390
257 -2 5 -8 7 -13 3 -15 -9 -10 6 9 26 26 28 133 90 156 90 33 0 296 -78 323
-95 14 -9 27 -14 29 -12 8 7 -101 219 -124 243 l-21 22 24 22 c20 19 144 108
153 109 1 1 18 -5 37 -13z m-4905 -76 c0 -5 -2 -10 -4 -10 -3 0 -8 5 -11 10
-3 6 -1 10 4 10 6 0 11 -4 11 -10z m-52 -41 c-36 -31 -44 -34 -53 -20 -7 13
47 49 64 43 9 -3 11 0 6 8 -6 9 -4 11 4 5 9 -5 3 -16 -21 -36z m-54 -28 c8
-13 -21 -34 -35 -25 -8 4 -9 3 -5 -4 7 -11 -52 -60 -109 -89 -26 -14 -28 -14
-18 -1 7 8 10 17 8 20 -9 8 64 60 75 53 6 -3 10 0 10 7 0 7 12 21 28 30 31 20
39 21 46 9z m6183 -53 c-3 -8 -6 -5 -6 6 -1 11 2 17 5 13 3 -3 4 -12 1 -19z
m-3282 -18 c-3 -5 -12 -10 -18 -10 -7 0 -6 4 3 10 19 12 23 12 15 0z m-1427
-39 c73 -38 328 -192 355 -215 27 -24 27 -25 27 -148 l0 -123 -88 -66 c-92
-70 -281 -199 -291 -199 -3 0 -5 61 -4 135 1 93 -1 133 -9 129 -5 -4 -20 5
-32 18 -22 26 -328 238 -343 238 -5 0 -14 5 -21 12 -15 15 3 30 131 117 192
129 209 136 275 102z m2698 -370 c78 -35 122 -101 110 -165 -21 -109 -230
-150 -358 -70 -104 66 -101 180 6 230 66 31 180 33 242 5z m-6563 -1727 c3 -3
-10 -38 -29 -77 -25 -53 -31 -74 -23 -84 16 -18 49 -16 71 4 23 21 23 45 -2
68 -20 18 -20 18 5 43 l25 25 23 -24 c18 -19 22 -36 22 -84 0 -96 -45 -145
-134 -145 -25 0 -44 7 -56 20 -10 11 -24 20 -30 20 -15 0 -25 33 -18 60 3 11
11 20 18 20 8 0 33 36 57 80 40 74 55 90 71 74z m113 -15 c11 -19 -13 -34 -31
-19 -13 11 -13 15 -3 21 18 12 26 11 34 -2z"/>
<path d="M6513 8741 c-48 -35 -77 -80 -94 -144 -24 -97 39 -179 126 -163 45 9
109 58 125 95 16 39 24 35 10 -5 l-10 -29 20 24 c11 12 17 27 14 32 -3 5 -1 9
4 9 5 0 12 19 15 43 3 24 9 52 12 62 6 17 5 18 -5 5 -10 -13 -11 -11 -7 8 3
14 1 20 -6 15 -6 -4 -8 -1 -5 8 6 16 -12 37 -28 32 -6 -2 -19 6 -29 17 -28 31
-92 27 -142 -9z m196 -77 c4 -16 5 -38 1 -49 -7 -16 -8 -14 -8 10 1 17 -3 41
-7 55 -4 14 -5 22 -1 19 4 -4 10 -19 15 -35z"/>
<path d="M6503 8015 c0 -22 2 -30 4 -17 2 12 2 30 0 40 -3 9 -5 -1 -4 -23z"/>
<path d="M6521 8024 c0 -11 3 -14 6 -6 3 7 2 16 -1 19 -3 4 -6 -2 -5 -13z"/>
<path d="M6440 7985 c-15 -19 -14 -20 26 -28 38 -7 47 -1 31 24 -14 23 -40 25
-57 4z"/>
<path d="M7556 6624 c-4 -9 -4 -19 -1 -22 2 -3 7 3 11 12 4 9 4 19 1 22 -2 3
-7 -3 -11 -12z"/>
<path d="M4145 4719 c-5 -5 -21 -18 -34 -29 -13 -11 -19 -20 -14 -20 6 0 26
13 44 30 19 16 30 30 24 29 -5 0 -14 -4 -20 -10z"/>
<path d="M3445 5660 c-3 -5 -2 -10 4 -10 5 0 13 5 16 10 3 6 2 10 -4 10 -5 0
-13 -4 -16 -10z"/>
<path d="M7480 6310 c-6 -25 -16 -53 -21 -62 -14 -28 6 -50 90 -100 235 -140
309 -165 305 -100 -1 15 -3 44 -3 65 -1 26 -6 40 -18 44 -10 4 -68 39 -129 79
-135 88 -172 107 -189 100 -8 -3 -16 0 -18 7 -2 7 -10 -8 -17 -33z"/>
<path d="M8476 3459 c-19 -28 -5 -49 33 -49 41 0 69 24 55 47 -17 28 -69 29
-88 2z"/>
<path d="M8050 2251 c0 -5 9 -13 20 -16 11 -3 20 -11 20 -16 0 -5 8 -9 18 -9
13 0 10 6 -13 25 -32 26 -45 31 -45 16z"/>
<path d="M7720 2196 c0 -3 9 -10 20 -16 11 -6 20 -8 20 -6 0 3 -9 10 -20 16
-11 6 -20 8 -20 6z"/>
<path d="M4427 2120 c3 -47 7 -87 9 -89 8 -9 2 135 -6 154 -5 12 -6 -14 -3
-65z"/>
<path d="M4441 2006 c-1 -13 -6 -17 -22 -13 -17 5 -18 3 -8 -9 11 -13 14 -13
27 0 8 8 12 20 9 28 -4 8 -6 6 -6 -6z"/>
<path d="M4480 2002 c0 -12 -59 -44 -70 -37 -6 3 -10 2 -10 -4 0 -22 19 -19
58 10 43 32 49 39 32 39 -5 0 -10 -4 -10 -8z"/>
<path d="M4243 1992 c-8 -5 -14 -38 -16 -82 -4 -63 -2 -71 9 -55 8 10 15 37
15 59 l2 41 7 -35 c5 -23 8 -27 9 -12 1 24 22 26 33 2 4 -10 7 -6 7 12 1 15 6
30 11 33 6 3 10 12 10 18 0 8 -3 7 -9 -2 -7 -11 -10 -9 -16 8 -6 21 -38 28
-62 13z m24 -28 c-3 -3 -12 -4 -19 -1 -8 3 -5 6 6 6 11 1 17 -2 13 -5z m14
-17 c-10 -9 -11 -8 -5 6 3 10 9 15 12 12 3 -3 0 -11 -7 -18z"/>
<path d="M4344 1904 c-18 -14 -18 -14 6 -3 31 14 36 19 24 19 -6 0 -19 -7 -30
-16z"/>
<path d="M6666 2091 c-66 -27 -96 -57 -96 -96 0 -71 85 -122 185 -112 64 6
124 33 139 62 6 11 15 23 20 26 5 4 6 23 2 42 -15 79 -146 119 -250 78z"/>
</g>
</svg>
